# xmcd
#
# Track frame offsets:
#	150
#	9680
#	20515
#	30862
#	41910
#	52855
#	67292
#	77735
#	86947
#
# Disc length: 1285 seconds
#
# Revision: 2
# Processed by: cddbd v1.5.1PL0 Copyright (c) Steve Scherf et al.
# Submitted via: MusicManager 7.2.0.0 
#
DISCID=6f050309
DTITLE=Waylon Jennings - Heartaches By The Number
DYEAR=1999
DGENRE=Country
TTITLE0=Heartaches By The Number
TTITLE1=Tiger By The Tail
TTITLE2=Foolin'  'Round
TTITLE3=(That's What You Get) For Lovin' Me
TTITLE4=You're Gonna Wonder About Me
TTITLE5=Folsom Prison Blues
TTITLE6=Busted
TTITLE7=Time To Bum Again
TTITLE8=Leavin' Town
EXTD=
EXTT0=
EXTT1=
EXTT2=
EXTT3=
EXTT4=
EXTT5=
EXTT6=
EXTT7=
EXTT8=
PLAYORDER=
